<svg width="1088" height="1088" viewBox="0 0 1088 1088" fill="none" xmlns="http://www.w3.org/2000/svg">
<path d="M293 0L292.999 283H538.999L539 0H549L548.999 283H794.999L795 0H805L804.999 283H1088V293H804.999V539H1088V549H804.999V795H1088V805H804.999L805 1088H795L794.999 805H548.999L549 1088H539L538.999 805H292.999L293 1088H283L282.999 805H0V795H282.999V549H0V539H282.999V293H0V283H282.999L283 0H293ZM538.999 549H292.999V795H538.999V549ZM794.999 549H548.999V795H794.999V549ZM538.999 293H292.999V539H538.999V293ZM794.999 293H548.999V539H794.999V293Z" fill="#C8C8C8"/>
</svg>
